<?xml version="1.0" encoding="UTF-8" standalone="no"?>
<svg
   xmlns:dc="http://purl.org/dc/elements/1.1/"
   xmlns:cc="http://creativecommons.org/ns#"
   xmlns:rdf="http://www.w3.org/1999/02/22-rdf-syntax-ns#"
   xmlns:svg="http://www.w3.org/2000/svg"
   xmlns="http://www.w3.org/2000/svg"
   xmlns:sodipodi="http://sodipodi.sourceforge.net/DTD/sodipodi-0.dtd"
   xmlns:inkscape="http://www.inkscape.org/namespaces/inkscape"
   version="1.1"
   id="svg45"
   width="2048"
   height="1080"
   viewBox="0 0 2048 1080"
   sodipodi:docname="segysak_t21_background.svg"
   inkscape:version="1.0.1 (3bc2e813f5, 2020-09-07)"
   inkscape:export-filename="C:\Users\trhal\segysak\segysak_backgroud.png"
   inkscape:export-xdpi="150.00002"
   inkscape:export-ydpi="150.00002"
   style="enable-background:new">
  <metadata
     id="metadata51">
    <rdf:RDF>
      <cc:Work
         rdf:about="">
        <dc:format>image/svg+xml</dc:format>
        <dc:type
           rdf:resource="http://purl.org/dc/dcmitype/StillImage" />
        <dc:title></dc:title>
      </cc:Work>
    </rdf:RDF>
  </metadata>
  <defs
     id="defs49">
    <filter
       inkscape:collect="always"
       style="color-interpolation-filters:sRGB"
       id="filter5132">
      <feBlend
         inkscape:collect="always"
         mode="multiply"
         in2="BackgroundImage"
         id="feBlend5134" />
    </filter>
    <filter
       inkscape:collect="always"
       style="color-interpolation-filters:sRGB"
       id="filter5299">
      <feBlend
         inkscape:collect="always"
         mode="multiply"
         in2="BackgroundImage"
         id="feBlend5301" />
    </filter>
  </defs>
  <sodipodi:namedview
     pagecolor="#ffffff"
     bordercolor="#666666"
     borderopacity="1"
     objecttolerance="10"
     gridtolerance="10"
     guidetolerance="10"
     inkscape:pageopacity="0"
     inkscape:pageshadow="2"
     inkscape:window-width="2560"
     inkscape:window-height="1387"
     id="namedview47"
     showgrid="false"
     inkscape:zoom="0.33499184"
     inkscape:cx="516.79881"
     inkscape:cy="318.25462"
     inkscape:window-x="-8"
     inkscape:window-y="-8"
     inkscape:window-maximized="1"
     inkscape:current-layer="layer4"
     inkscape:document-rotation="0" />
  <g
     inkscape:groupmode="layer"
     id="layer3"
     inkscape:label="Art 1"
     style="display:inline;opacity:1"
     transform="translate(-408.52095,-765.32274)" />
  <g
     inkscape:groupmode="layer"
     id="layer2"
     inkscape:label="Art"
     style="display:inline;opacity:1"
     transform="translate(-408.52095,-765.32274)" />
  <g
     inkscape:groupmode="layer"
     id="layer1"
     inkscape:label="Text"
     style="display:inline"
     transform="translate(-408.52095,-765.32274)">
    <path
       style="display:inline;opacity:1;fill:none;stroke:none;stroke-width:1.28494px;stroke-linecap:butt;stroke-linejoin:miter;stroke-opacity:1;enable-background:new"
       d="m 2169.5082,890.26263 c 0,0 61.1789,82.60747 99.7663,92.78997 38.5874,10.1825 41.0274,5.6314 41.0274,5.6314"
       id="path79"
       inkscape:connector-curvature="0" />
    <path
       style="display:inline;opacity:1;fill:#5b5252;fill-opacity:1;stroke:none;stroke-width:1px;stroke-linecap:butt;stroke-linejoin:miter;stroke-opacity:1;filter:url(#filter5299);enable-background:new"
       d="m 1334.4011,989.70289 -107.4108,-104.26888 10.37,3.24575 c 0,0 -9.7535,-27.8655 -25.8404,-26.402 -14.8177,-19.4073 -52.5757,-61.78464 -52.5757,-61.78464 0,0 -115.0704,-133.94246 -185.7215,-215.16921 C 902.2092,500.85314 870.0376,444.60491 850.421,387.12198 815.6273,285.16542 824.2783,270.73931 823.5025,259.07805 c 40.1988,3.25648 106.0747,40.99446 151.9403,73.60418 70.9314,65.15582 74.4156,64.66119 170.0924,198.3544 43.4284,60.68432 175.2478,245.88755 175.2478,245.88755 0,0 9.722,-37.63649 29.228,-34.35462 8.1354,1.36878 -0.01,15.30342 -0.01,15.30342 0,0 -19.8089,30.85788 10.6754,65.58788 30.4842,34.72999 61,-21.24149 61,-21.24149 l -2.3356,-130.32635 c 0,0 -0.5219,-8.97131 -11.3397,-9.24218 -10.8178,-0.27087 -74.3256,1.87153 -74.3256,1.87153 0,0 -3.2919,-2.69524 -2.8722,-4.55104 0.4198,-1.85579 19.754,-58.48051 19.754,-58.48051 0,0 5.7227,-16.98158 27.1344,-34.05899 9.028,-7.20047 27.0544,-18.72834 31.571,-30.3956 l 5.2066,-13.44956 31.7352,-0.32515 23.8808,59.94636 10.9431,367.93548 -8.673,3.51544"
       id="path55-4"
       inkscape:connector-curvature="0"
       sodipodi:nodetypes="ccccccsccscsccccscccssccccc"
       transform="matrix(0.27612526,-1.2549216,1.2549216,0.27612526,762.19932,2520.7472)" />
    <path
       style="display:inline;opacity:1;fill:#020302;fill-opacity:1;stroke:none;stroke-width:1px;stroke-linecap:butt;stroke-linejoin:miter;stroke-opacity:1;filter:url(#filter5132);enable-background:new"
       d="m 572.34582,676.11139 69.73557,-191.22949 23.90347,-45.3125 6.15524,-7.31109 -46.16535,-153.81944 -14.71382,-53.3714 c 0,0 -5.64314,-20.45935 4.45182,-88.35123 0.6689,-4.49853 5.09839,-17.05841 8.9258,-28.51756 15.41798,42.14594 96.67044,223.76397 96.67044,223.76397 L 829.09443,111.82508 c 0,0 13.31819,50.96662 11.66093,76.81036 -5.43537,84.76071 -70.10825,244.96964 -70.10825,244.96964 l 19.09732,42.28336 33.7831,96.77383 47.65922,109.0656 c -92.34816,192.03579 -4.38727,160.46875 -87.05293,-56.3025 0,0 -37.83006,-7.12709 -31.48191,-39.60737 -4.23072,10.54015 -10.60926,26.33095 -10.60926,26.33095 l -28.76695,55.5469 -18.72664,17.4476 -16.54451,19.74179 c 0,0 -51.88164,74.47277 -48.69488,140.99291 3.18677,66.52014 -13.28328,-9.51406 -13.28328,-9.51406 L 644.241,922.4979 525.76094,892.11877 Z"
       id="path55"
       inkscape:connector-curvature="0"
       sodipodi:nodetypes="ccccccscccsccccccccccscccc"
       transform="matrix(1.2072136,0.4401234,-0.4401234,1.2072136,1169.9126,406.91745)" />
    <rect
       id="rect57"
       width="1440.3197"
       height="306.85913"
       x="-128.63629"
       y="2210.7644"
       ry="153.42957"
       style="display:inline;opacity:1;fill:#2d5016;fill-opacity:1;stroke:none;stroke-width:1.35433;stroke-miterlimit:4;stroke-dasharray:none;stroke-opacity:1;enable-background:new"
       transform="rotate(-40)" />
    <flowRoot
       xml:space="preserve"
       id="flowRoot98"
       style="font-style:normal;font-weight:normal;font-size:40px;line-height:1.25;font-family:sans-serif;letter-spacing:0px;word-spacing:0px;fill:#f6ffff;fill-opacity:1;stroke:none"
       transform="matrix(0.9843219,-0.82594415,0.56741034,1.2012574,543.11211,1110.9408)"><flowRegion
         id="flowRegion100"
         style="fill:#f6ffff;fill-opacity:1"><rect
           id="rect102"
           width="641.8067"
           height="167.16826"
           x="537.32654"
           y="805.95081"
           style="fill:#f6ffff;fill-opacity:1" /></flowRegion><flowPara
         id="flowPara104"
         style="font-style:italic;font-variant:normal;font-weight:bold;font-stretch:normal;font-size:93.3333px;font-family:'Liberation Sans';-inkscape-font-specification:'Liberation Sans, Bold Italic';font-variant-ligatures:normal;font-variant-caps:normal;font-variant-numeric:normal;font-feature-settings:normal;text-align:start;writing-mode:lr-tb;text-anchor:start;fill:#f6ffff;fill-opacity:1">SEGYSAK</flowPara></flowRoot>
    <path
       style="fill:#eef4ff;fill-opacity:1;stroke:#ffffff;stroke-width:8.48061;stroke-linecap:round;stroke-linejoin:bevel;stroke-miterlimit:4;stroke-dasharray:none;stroke-opacity:1"
       d="m 1463.0528,1822.6069 99.7304,-83.6842"
       id="path106"
       inkscape:connector-curvature="0" />
    <path
       style="display:inline;fill:#eef4ff;fill-opacity:1;stroke:#ffffff;stroke-width:8.48061;stroke-linecap:round;stroke-linejoin:bevel;stroke-miterlimit:4;stroke-dasharray:none;stroke-opacity:1"
       d="m 1456.9402,1805.8284 99.7309,-83.6839"
       id="path106-1"
       inkscape:connector-curvature="0" />
    <path
       style="display:inline;fill:#eef4ff;fill-opacity:1;stroke:#ffffff;stroke-width:8.48061;stroke-linecap:round;stroke-linejoin:bevel;stroke-miterlimit:4;stroke-dasharray:none;stroke-opacity:1"
       d="m 1450.8276,1789.0498 99.7309,-83.6841"
       id="path106-1-2"
       inkscape:connector-curvature="0"
       inkscape:transform-center-x="-14.132432"
       inkscape:transform-center-y="20.007103" />
    <path
       style="display:inline;fill:#eef4ff;fill-opacity:1;stroke:#ffffff;stroke-width:8.48061;stroke-linecap:round;stroke-linejoin:bevel;stroke-miterlimit:4;stroke-dasharray:none;stroke-opacity:1"
       d="m 1445.754,1771.3993 99.7308,-83.6841"
       id="path106-1-23"
       inkscape:connector-curvature="0" />
    <path
       style="display:inline;fill:#eef4ff;fill-opacity:1;stroke:#ffffff;stroke-width:8.48061;stroke-linecap:round;stroke-linejoin:bevel;stroke-miterlimit:4;stroke-dasharray:none;stroke-opacity:1"
       d="m 1439.7505,1754.5292 99.7306,-83.6839"
       id="path106-1-23-8"
       inkscape:connector-curvature="0" />
    <path
       style="display:inline;fill:#eef4ff;fill-opacity:1;stroke:#ffffff;stroke-width:8.48061;stroke-linecap:round;stroke-linejoin:bevel;stroke-miterlimit:4;stroke-dasharray:none;stroke-opacity:1"
       d="m 2032.0654,1341.909 99.7307,-83.6841"
       id="path106-4"
       inkscape:connector-curvature="0" />
    <path
       style="display:inline;fill:#eef4ff;fill-opacity:1;stroke:#ffffff;stroke-width:8.48061;stroke-linecap:round;stroke-linejoin:bevel;stroke-miterlimit:4;stroke-dasharray:none;stroke-opacity:1"
       d="m 2025.9529,1325.1302 99.7307,-83.6839"
       id="path106-1-5"
       inkscape:connector-curvature="0" />
    <path
       style="display:inline;fill:#eef4ff;fill-opacity:1;stroke:#ffffff;stroke-width:8.48061;stroke-linecap:round;stroke-linejoin:bevel;stroke-miterlimit:4;stroke-dasharray:none;stroke-opacity:1"
       d="m 2019.8404,1308.3518 99.7307,-83.6843"
       id="path106-1-2-8"
       inkscape:connector-curvature="0"
       inkscape:transform-center-x="-14.13242"
       inkscape:transform-center-y="20.007031" />
    <path
       style="display:inline;fill:#eef4ff;fill-opacity:1;stroke:#ffffff;stroke-width:8.48061;stroke-linecap:round;stroke-linejoin:bevel;stroke-miterlimit:4;stroke-dasharray:none;stroke-opacity:1"
       d="m 2014.7666,1290.7014 99.7308,-83.6841"
       id="path106-1-23-3"
       inkscape:connector-curvature="0" />
    <path
       style="display:inline;fill:#eef4ff;fill-opacity:1;stroke:#ffffff;stroke-width:8.48061;stroke-linecap:round;stroke-linejoin:bevel;stroke-miterlimit:4;stroke-dasharray:none;stroke-opacity:1"
       d="m 2008.7632,1273.8314 99.7306,-83.6845"
       id="path106-1-23-8-8"
       inkscape:connector-curvature="0" />
    <path
       style="fill:none;stroke:#ffffff;stroke-width:4.3688;stroke-linecap:butt;stroke-linejoin:round;stroke-miterlimit:4;stroke-dasharray:none;stroke-opacity:1"
       d="m 1686.6252,1870.0256 -74.5834,-88.885 697.8571,-585.5714 75.1998,89.6194"
       id="path4662"
       inkscape:connector-curvature="0" />
    <path
       style="fill:none;stroke:#ffffff;stroke-width:7.70965;stroke-linecap:butt;stroke-linejoin:miter;stroke-miterlimit:4;stroke-dasharray:none;stroke-opacity:1"
       d="m 1649.8891,1824.1338 82.0702,-68.8648 c 0,0 6.5763,-6.4037 14.2695,-3.565 7.693,2.8392 42.7403,20.3444 14.0904,-18.0191 -28.6502,-38.3632 -25.8798,-53.5224 13.4544,-13.5022 39.3341,40.0199 75.8947,42.9777 34.2764,-17.6972 -41.6184,-60.6749 -29.0026,-78.3421 22.1235,-30.0707 51.1263,48.271 28.8824,-8.3026 22.3775,-19.2196 -6.505,-10.9169 -44.4218,-80.8943 30.0906,-35.8711 74.5131,45.0229 48.0031,-15.0523 44.1042,-25.5008 -3.8985,-10.4485 -14.9596,-46.3104 24.4463,-23.6106 39.4054,22.6996 42.8552,-3.8553 29.0461,-23.9303 -14.0906,-20.4848 -6.1203,-51.0721 33.6467,-24.2499 44.3754,29.9304 55.7421,7.9043 37.4647,-37.6323 -10.5541,-26.2942 -7.5802,-59.1412 40.7247,-36.3851 51.5225,24.4816 54.2273,15.5737 53.2357,-33.6057 -1.7497,-29.5123 3.9487,-64.3891 29.1893,-58.5712 25.2403,5.8181 41.424,32.847 41.7548,-1.4005 0.2182,-22.5589 1.6537,-24.4017 15.9827,-23.1479 34.4084,8.3047 35.2711,6.6955 33.1127,-15.3924 -1.8983,-19.4219 -29.4476,-81.5092 13.9226,-54.6123 25.972,16.7108 43.3639,-0.5381 43.3639,-0.5381 l 23.6342,-19.8312"
       id="path4664"
       inkscape:connector-curvature="0"
       sodipodi:nodetypes="cccsssssscssssccsscsccc" />
    <text
       xml:space="preserve"
       style="font-weight:bold;font-size:53.3333px;line-height:1.25;font-family:Arial;-inkscape-font-specification:'Arial, Bold';letter-spacing:0px;word-spacing:0px;writing-mode:lr-tb"
       x="1155.6592"
       y="842.93658"
       id="text866"><tspan
         sodipodi:role="line"
         id="tspan864"
         x="1155.6592"
         y="842.93658">T21 - segysak Tutorial</tspan></text>
  </g>
  <g
     inkscape:groupmode="layer"
     id="layer4"
     inkscape:label="Fade"
     style="opacity:0.79800499">
    <rect
       style="fill:#ffffff;fill-rule:evenodd;stroke-width:3.77953;stroke-linecap:round;stroke-miterlimit:2.9;paint-order:fill markers stroke"
       id="rect869"
       width="2140.3506"
       height="1131.3708"
       x="-11.940589"
       y="-8.9554424" />
  </g>
</svg>
